<svg width="45" height="45" viewBox="0 0 45 45" fill="none" xmlns="http://www.w3.org/2000/svg">
<path d="M22.5 38.5C26.4782 38.5 31.187 36.313 34 33.5C36.813 30.687 38.5 26.4782 38.5 22.5C38.5 18.5218 36.813 13.813 34 11C31.187 8.18695 26.4782 6.5 22.5 6.5C18.5218 6.5 13.813 8.18695 11 11C8.18695 13.813 6.5 18.5218 6.5 22.5C6.5 26.4782 8.18695 31.187 11 34C13.813 36.813 18.5218 38.5 22.5 38.5ZM22.5 3.75C24.9623 3.75 27.4005 4.23498 29.6753 5.17726C31.9502 6.11953 34.0172 7.50065 35.7583 9.24175C37.4993 10.9828 38.8805 13.0498 39.8227 15.3247C40.765 17.5995 41.25 20.0377 41.25 22.5C41.25 27.4728 39.2746 32.2419 35.7583 35.7583C32.2419 39.2746 27.4728 41.25 22.5 41.25C12.1312 41.25 3.75 32.8125 3.75 22.5C3.75 17.5272 5.72544 12.7581 9.24175 9.24175C12.7581 5.72544 17.5272 3.75 22.5 3.75ZM23.4375 13.125V22.9688L31.875 27.975L30.4688 30.2812L20.625 24.375V13.125H23.4375Z" fill="#1567C8"/>
</svg>
