<svg width="45" height="45" viewBox="0 0 45 45" fill="none" xmlns="http://www.w3.org/2000/svg">
<g clip-path="url(#clip0_137_1727)">
<path d="M22.4999 8.3999C21.0833 8.3999 19.6985 8.81998 18.5206 9.607C17.3428 10.394 16.4247 11.5127 15.8826 12.8214C15.3405 14.1302 15.1987 15.5703 15.475 16.9597C15.7514 18.3491 16.4336 19.6254 17.4353 20.6271C18.4369 21.6287 19.7132 22.3109 21.1026 22.5873C22.492 22.8636 23.9321 22.7218 25.2409 22.1797C26.5497 21.6376 27.6683 20.7195 28.4553 19.5417C29.2423 18.3638 29.6624 16.979 29.6624 15.5624C29.6624 13.6628 28.9078 11.841 27.5646 10.4978C26.2213 9.15452 24.3995 8.3999 22.4999 8.3999ZM22.4999 20.2249C21.5778 20.2249 20.6763 19.9515 19.9096 19.4391C19.1428 18.9268 18.5452 18.1986 18.1923 17.3467C17.8394 16.4947 17.7471 15.5572 17.927 14.6528C18.1069 13.7484 18.551 12.9176 19.203 12.2655C19.8551 11.6135 20.6859 11.1694 21.5903 10.9895C22.4947 10.8096 23.4322 10.9019 24.2842 11.2548C25.1361 11.6077 25.8643 12.2053 26.3766 12.9721C26.889 13.7388 27.1624 14.6402 27.1624 15.5624C27.1591 16.7968 26.6664 17.9795 25.7924 18.8512C24.9184 19.7229 23.7343 20.2124 22.4999 20.2124V20.2249Z" fill="#1567C8"/>
<path d="M22.4999 2.5C18.6064 2.50325 14.8724 4.04711 12.1134 6.79437C9.35444 9.54163 7.79472 13.269 7.7749 17.1625C7.7749 23 11.0499 27.8875 13.4499 31.45L13.8874 32.1C16.2753 35.5608 18.8369 38.8984 21.5624 42.1L22.5124 43.2125L23.4624 42.1C26.1876 38.8981 28.7492 35.5605 31.1374 32.1L31.5749 31.4375C33.9624 27.875 37.2374 23 37.2374 17.1625C37.2176 13.2669 35.6561 9.53758 32.8945 6.78996C30.1328 4.04235 26.3956 2.49995 22.4999 2.5ZM29.4874 30L29.0374 30.6625C26.8874 33.8875 24.0374 37.5 22.4999 39.2875C21.0249 37.5 18.1124 33.8875 15.9624 30.6625L15.5249 30C13.3124 26.7 10.2749 22.1875 10.2749 17.1125C10.2749 15.5071 10.5911 13.9174 11.2055 12.4342C11.8198 10.951 12.7203 9.60332 13.8555 8.46812C14.9907 7.33292 16.3384 6.43244 17.8216 5.81807C19.3048 5.20371 20.8945 4.8875 22.4999 4.8875C24.1053 4.8875 25.695 5.20371 27.1782 5.81807C28.6614 6.43244 30.0091 7.33292 31.1443 8.46812C32.2795 9.60332 33.18 10.951 33.7943 12.4342C34.4087 13.9174 34.7249 15.5071 34.7249 17.1125C34.7249 22.2375 31.6999 26.75 29.4874 30Z" fill="#1567C8"/>
</g>
<defs>
<clipPath id="clip0_137_1727">
<rect width="45" height="45" fill="white"/>
</clipPath>
</defs>
</svg>
