<svg width="13" height="13" viewBox="0 0 13 13" fill="none" xmlns="http://www.w3.org/2000/svg">
<path d="M6.5 0C3.8025 0 1.625 2.1775 1.625 4.875C1.625 8.125 6.5 13 6.5 13C6.5 13 11.375 8.125 11.375 4.875C11.375 2.1775 9.1975 0 6.5 0ZM6.5 1.625C7.36195 1.625 8.1886 1.96741 8.7981 2.5769C9.40759 3.1864 9.75 4.01305 9.75 4.875C9.75 6.67875 8.30375 8.125 6.5 8.125C5.63805 8.125 4.8114 7.78259 4.2019 7.1731C3.59241 6.5636 3.25 5.73695 3.25 4.875C3.25 4.01305 3.59241 3.1864 4.2019 2.5769C4.8114 1.96741 5.63805 1.625 6.5 1.625Z" fill="black"/>
</svg>
