<svg width="45" height="45" viewBox="0 0 45 45" fill="none" xmlns="http://www.w3.org/2000/svg">
<path d="M37.5 29.0625C35.25 29.0625 32.8125 28.6875 30.75 27.9375H30.1875C29.625 27.9375 29.25 28.125 28.875 28.5L24 34.125C18.75 31.3125 13.625 25.75 11 20.5L16.5 16.125C17.0625 15.5625 17.25 14.8125 16.875 14.25C16.3125 12.1875 15.9375 9.75 15.9375 7.5C15.9375 6.5625 15 5.625 14.0625 5.625H7.5C6.5625 5.625 5.625 6.5625 5.625 7.5C5.625 25.125 19.875 39.375 37.5 39.375C38.4375 39.375 39.375 38.4375 39.375 37.5V30.9375C39.375 30 38.4375 29.0625 37.5 29.0625ZM7.5 7.5H14.0625C14.25 9.1875 14.625 13 15 14.5L9.5 18.5C8.75 16.25 7.6875 9.9375 7.5 7.5ZM37 37.5C34.5625 37.3125 28.75 36.375 26.5 35.625L30.1875 30.5C31.6875 30.875 35.3125 31.5 37 31.5V37.5Z" fill="#1567C8"/>
</svg>
